# xmcd
#
# Track frame offsets: 
#        150
#        19792
#        41903
#        58371
#        80837
#        119575
#        142570
#        164012
#        183970
#        197478
#        229710
#        258194
#
# Disc length: 3715 seconds
#
# Revision: 0
# Processed by: cddbd v1.5.2PL0 Copyright (c) Steve Scherf et al.
# Submitted via: ExactAudioCopy v0.99pb5
#
DISCID=a50e810c
DTITLE=B.B.King and Eric Clapton - Riding with the king
DYEAR=1900
DGENRE=
TTITLE0=Riding With The King
TTITLE1=Ten Long Years
TTITLE2=Key To The Highway
TTITLE3=Marry You
TTITLE4=Three O'clock Blues
TTITLE5=Help The Poor
TTITLE6=I Wanna Be
TTITLE7=Worried Life Blues
TTITLE8=Days Of Old
TTITLE9=When My Heart Beats Like A Hammer
TTITLE10=Hold On! I'm Comin'
TTITLE11=Come Rain Or Come Shine
EXTD=
EXTT0=
EXTT1=
EXTT2=
EXTT3=
EXTT4=
EXTT5=
EXTT6=
EXTT7=
EXTT8=
EXTT9=
EXTT10=
EXTT11=
PLAYORDER=
